<?xml version="1.0" encoding="iso-8859-1"?>
<!-- Generator: Adobe Illustrator 19.0.0, SVG Export Plug-In . SVG Version: 6.00 Build 0)  -->
<svg version="1.1" id="Capa_1" xmlns="http://www.w3.org/2000/svg" xmlns:xlink="http://www.w3.org/1999/xlink" x="0px" y="0px"
	 viewBox="0 0 512 512" style="enable-background:new 0 0 512 512;" xml:space="preserve">
<g>
	<g>
		<path d="M505.496,240.307l-194.59-194.59c-8.672-8.671-22.714-8.671-31.386,0c-8.671,8.664-8.671,22.722,0,31.386L458.418,256
			L279.521,434.897c-8.671,8.664-8.671,22.722,0,31.386c4.336,4.336,10.011,6.504,15.693,6.504s11.365-2.168,15.693-6.504
			l194.59-194.59C514.168,263.029,514.168,248.971,505.496,240.307z"/>
	</g>
</g>
<g>
	<g>
		<path d="M232.479,240.307L37.889,45.717c-8.664-8.671-22.722-8.671-31.386,0c-8.671,8.664-8.671,22.722,0,31.386L185.393,256
			L6.504,434.897c-8.671,8.664-8.671,22.722,0,31.386c4.328,4.336,10.011,6.504,15.693,6.504s11.365-2.168,15.693-6.504
			l194.59-194.59C241.15,263.029,241.15,248.971,232.479,240.307z"/>
	</g>
</g>
<g>
</g>
<g>
</g>
<g>
</g>
<g>
</g>
<g>
</g>
<g>
</g>
<g>
</g>
<g>
</g>
<g>
</g>
<g>
</g>
<g>
</g>
<g>
</g>
<g>
</g>
<g>
</g>
<g>
</g>
</svg>
