<?xml version="1.0" encoding="iso-8859-1"?>
<!-- Generator: Adobe Illustrator 19.0.0, SVG Export Plug-In . SVG Version: 6.00 Build 0)  -->
<svg version="1.1" id="Layer_1" xmlns="http://www.w3.org/2000/svg" xmlns:xlink="http://www.w3.org/1999/xlink" x="0px" y="0px"
	 viewBox="0 0 423.755 423.755" style="enable-background:new 0 0 423.755 423.755;" xml:space="preserve">
<g>
	<path d="M43.841,281.457c-18.585-44.869-18.586-94.29,0-139.159c15.615-37.697,42.78-68.384,77.674-88.255v75.005h30V15.053H37.519
		v30h43.755c-73,57.164-102.324,158.139-65.15,247.885c14.167,34.202,37.07,64.159,66.234,86.634
		c28.274,21.789,61.873,36.201,97.162,41.677l4.601-29.646C120.778,381.774,68.338,340.598,43.841,281.457z"/>
	<path d="M407.517,292.938c21.651-52.272,21.651-109.848,0-162.12c-14.167-34.202-37.07-64.159-66.234-86.633
		C313.008,22.395,279.409,7.983,244.12,2.507l-4.6,29.646c63.342,9.829,115.782,51.005,140.279,110.146
		c18.585,44.869,18.585,94.29,0,139.159c-15.614,37.697-42.78,68.384-77.673,88.255v-75.005h-30v113.995h113.995v-30h-43.625
		C370.949,356.486,393.327,327.195,407.517,292.938z"/>
</g>
<g>
</g>
<g>
</g>
<g>
</g>
<g>
</g>
<g>
</g>
<g>
</g>
<g>
</g>
<g>
</g>
<g>
</g>
<g>
</g>
<g>
</g>
<g>
</g>
<g>
</g>
<g>
</g>
<g>
</g>
</svg>
