<svg height="512pt" viewBox="0 -26 512.00067 512" width="512pt" xmlns="http://www.w3.org/2000/svg"><path d="m416.804688 256.003906-22.625 22.621094 63.199218 63.203125h-97.824218c-18.195313.050781-34.835938-10.234375-42.929688-26.527344l-42.734375-85.476562 42.734375-85.472657c8.09375-16.292968 24.734375-26.578124 42.929688-26.527343h97.824218l-63.199218 63.203125 22.625 22.621094 90.511718-90.511719c6.246094-6.246094 6.246094-16.375 0-22.625l-90.511718-90.511719-22.625 22.625 63.199218 63.199219h-97.824218c-30.328126-.097657-58.078126 17.054687-71.554688 44.226562l-32 64-32-64c-13.472656-27.171875-41.222656-44.324219-71.550781-44.226562h-152.449219v32h152.449219c18.191406-.050781 34.835937 10.234375 42.929687 26.527343l42.734375 85.472657-42.734375 85.472656c-8.09375 16.296875-24.738281 26.582031-42.929687 26.53125h-152.449219v32h152.449219c30.328125.09375 58.078125-17.054687 71.554687-44.226563l32-64 32 64c13.472656 27.171876 41.222656 44.320313 71.550782 44.226563h97.824218l-63.199218 63.199219 22.625 22.625 90.511718-90.511719c6.246094-6.25 6.246094-16.378906 0-22.625zm0 0"/></svg>